<svg width="252" height="72" viewBox="0 0 252 72" fill="none" xmlns="http://www.w3.org/2000/svg">
<g clip-path="url(#clip0_14_19)">
<path d="M8.76 35.1299V71.9999H0V43.0999L8.76 35.1299Z" fill="#16153C"/>
<path d="M8.76001 35.1299V71.9999H17.52V41.2999L8.76001 35.1299Z" fill="#16A34B"/>
<path d="M26.02 20.0801V72.0001H14.34V31.0701L26.02 20.0801Z" fill="#16153C"/>
<path d="M26.02 20.0801V72.0001H37.7V28.3001L26.02 20.0801Z" fill="#16A34B"/>
<path d="M47.59 0V72H31.86V16.44L47.59 0Z" fill="#16153C"/>
<path d="M47.59 0V72H63.32V16.44L47.59 0Z" fill="#16A34B"/>
<path d="M107.99 16.97V22.12H88.33L91.37 19.05V43.44H85.37V16.97H107.99ZM88.26 28.2H107.39V33.32H88.26V28.2Z" fill="#16153C"/>
<path d="M112.72 16.97H118.72V43.44H112.72V16.97Z" fill="#16153C"/>
<path d="M142.33 16.97L154.72 43.44H148.33L137.49 19.4H139.47L128.63 43.44H122.24L134.63 16.97H142.32H142.33ZM129.17 37.87V33H147.52V37.87H129.17Z" fill="#16153C"/>
<path d="M170.85 16.97C173.93 16.97 176.63 17.52 178.95 18.63C181.27 19.74 183.07 21.28 184.37 23.25C185.67 25.23 186.31 27.54 186.31 30.2C186.31 32.86 185.66 35.15 184.37 37.14C183.08 39.13 181.27 40.68 178.95 41.78C176.63 42.89 173.93 43.44 170.85 43.44H158.28V16.97H170.85ZM164.25 41.08L161.22 38.15H171.31C173.1 38.15 174.67 37.82 176.02 37.16C177.37 36.5 178.41 35.57 179.14 34.37C179.87 33.17 180.23 31.78 180.23 30.2C180.23 28.62 179.87 27.21 179.14 26.02C178.41 24.83 177.37 23.91 176.02 23.25C174.67 22.59 173.1 22.26 171.31 22.26H161.22L164.25 19.33V41.07V41.08Z" fill="#16153C"/>
<path d="M205.3 43.9699C202.22 43.9699 199.52 43.3899 197.2 42.2399C194.88 41.0899 193.08 39.4799 191.78 37.4199C190.49 35.3599 189.84 32.9499 189.84 30.1999C189.84 27.4499 190.49 25.0399 191.78 22.9799C193.07 20.9199 194.88 19.3199 197.2 18.1599C199.52 17.0099 202.22 16.4299 205.3 16.4299C208.38 16.4299 211.08 17.0099 213.4 18.1599C215.72 19.3099 217.52 20.9199 218.82 22.9799C220.11 25.0399 220.76 27.4499 220.76 30.1999C220.76 32.9499 220.11 35.3599 218.82 37.4199C217.53 39.4799 215.72 41.0799 213.4 42.2399C211.08 43.3899 208.38 43.9699 205.3 43.9699ZM205.3 38.6399C207.23 38.6399 208.89 38.2999 210.29 37.6199C211.69 36.9399 212.77 35.9599 213.54 34.6899C214.31 33.4199 214.69 31.9299 214.69 30.2099C214.69 28.4899 214.31 26.9999 213.54 25.7299C212.77 24.4599 211.69 23.4799 210.29 22.7999C208.89 22.1199 207.23 21.7799 205.3 21.7799C203.37 21.7799 201.74 22.1199 200.32 22.7999C198.91 23.4799 197.82 24.4599 197.06 25.7299C196.3 26.9999 195.91 28.4999 195.91 30.2099C195.91 31.9199 196.29 33.4199 197.06 34.6899C197.83 35.9599 198.91 36.9399 200.32 37.6199C201.73 38.2999 203.39 38.6399 205.3 38.6399Z" fill="#16153C"/>
<path d="M229.76 28.73H239.96C241.3 28.73 242.37 28.42 243.15 27.79C243.94 27.17 244.33 26.3 244.33 25.19C244.33 24.08 243.94 23.23 243.15 22.61C242.36 22 241.3 21.69 239.96 21.69H228.88L231.6 18.62V43.43H225.6V16.96H240.67C242.6 16.96 244.29 17.31 245.75 18C247.21 18.69 248.35 19.65 249.17 20.88C249.99 22.1 250.41 23.54 250.41 25.19C250.41 26.84 250 28.24 249.17 29.46C248.34 30.68 247.21 31.64 245.75 32.34C244.29 33.03 242.6 33.38 240.67 33.38H229.76V28.72V28.73ZM234.34 31.05H241.19L251.18 43.44H244.16L234.35 31.05H234.34Z" fill="#16153C"/>
<path d="M90.71 52.7099C91.46 52.7099 92.12 52.8399 92.67 53.1099C93.22 53.3799 93.65 53.7499 93.95 54.2299C94.25 54.7099 94.4 55.2599 94.4 55.8899C94.4 56.5199 94.25 57.0699 93.95 57.5499C93.65 58.0299 93.22 58.4099 92.67 58.6699C92.12 58.9399 91.46 59.0699 90.71 59.0699H86.17V57.5299H90.64C91.25 57.5299 91.73 57.3799 92.07 57.0899C92.42 56.7899 92.59 56.3899 92.59 55.8799C92.59 55.3699 92.42 54.9599 92.07 54.6699C91.72 54.3699 91.25 54.2299 90.64 54.2299H86.34L87.13 53.3399V62.7899H85.35V52.6899H90.7L90.71 52.7099Z" fill="#16153C"/>
<path d="M97.63 57.26H101.74C102.33 57.26 102.8 57.13 103.15 56.86C103.5 56.59 103.67 56.22 103.67 55.76C103.67 55.3 103.5 54.91 103.15 54.65C102.8 54.39 102.34 54.25 101.74 54.25H97.38L98.17 53.25V62.81H96.39V52.71H101.9C102.61 52.71 103.23 52.84 103.76 53.09C104.29 53.35 104.71 53.7 105.01 54.15C105.31 54.6 105.46 55.14 105.46 55.75C105.46 56.36 105.31 56.87 105.01 57.32C104.71 57.77 104.29 58.13 103.76 58.38C103.23 58.64 102.6 58.76 101.9 58.76H97.63V57.25V57.26ZM99.63 58.08H101.72L105.73 62.81H103.6L99.63 58.08Z" fill="#16153C"/>
<path d="M113.03 63C111.88 63 110.87 62.78 110 62.34C109.13 61.9 108.45 61.29 107.97 60.5C107.49 59.71 107.24 58.8 107.24 57.76C107.24 56.72 107.48 55.81 107.97 55.02C108.45 54.23 109.13 53.62 110 53.18C110.87 52.74 111.88 52.52 113.03 52.52C114.18 52.52 115.19 52.74 116.06 53.18C116.93 53.62 117.61 54.23 118.09 55.02C118.57 55.81 118.82 56.72 118.82 57.76C118.82 58.8 118.58 59.71 118.09 60.5C117.61 61.29 116.93 61.9 116.06 62.34C115.19 62.78 114.18 63 113.03 63ZM113.03 61.41C113.85 61.41 114.55 61.26 115.14 60.97C115.73 60.67 116.19 60.25 116.52 59.7C116.85 59.15 117.01 58.51 117.01 57.76C117.01 57.01 116.85 56.37 116.52 55.82C116.19 55.27 115.73 54.85 115.14 54.55C114.55 54.25 113.84 54.11 113.03 54.11C112.22 54.11 111.52 54.26 110.92 54.55C110.32 54.85 109.86 55.27 109.53 55.82C109.2 56.37 109.04 57.01 109.04 57.76C109.04 58.51 109.2 59.15 109.53 59.7C109.86 60.25 110.32 60.67 110.92 60.97C111.52 61.27 112.22 61.41 113.03 61.41Z" fill="#16153C"/>
<path d="M129.41 52.71V54.27H121.88L122.85 53.26V62.81H121.07V52.71H129.41ZM121.94 57.13H129.2V58.69H121.94V57.13Z" fill="#16153C"/>
<path d="M131.58 52.71H133.36V62.81H131.58V52.71Z" fill="#16153C"/>
<path d="M135.54 59.53H137.34C137.39 59.93 137.56 60.29 137.85 60.59C138.13 60.89 138.51 61.13 138.97 61.3C139.43 61.47 139.98 61.55 140.59 61.55C141.5 61.55 142.22 61.41 142.74 61.13C143.27 60.85 143.53 60.46 143.53 59.98C143.53 59.58 143.38 59.29 143.07 59.09C142.76 58.89 142.21 58.74 141.41 58.65L139.23 58.37C138.01 58.21 137.12 57.91 136.57 57.46C136.02 57.02 135.74 56.38 135.74 55.57C135.74 54.95 135.93 54.41 136.3 53.96C136.67 53.51 137.2 53.16 137.88 52.91C138.56 52.66 139.36 52.54 140.28 52.54C141.2 52.54 141.99 52.67 142.69 52.94C143.39 53.21 143.95 53.58 144.37 54.06C144.79 54.54 145.01 55.1 145.05 55.75H143.25C143.2 55.39 143.05 55.08 142.8 54.82C142.55 54.56 142.2 54.36 141.77 54.21C141.34 54.06 140.83 53.99 140.25 53.99C139.42 53.99 138.76 54.12 138.27 54.39C137.78 54.66 137.53 55.03 137.53 55.49C137.53 55.85 137.68 56.13 137.97 56.32C138.26 56.51 138.77 56.66 139.5 56.76L141.71 57.07C142.62 57.2 143.33 57.36 143.86 57.57C144.39 57.78 144.76 58.06 144.98 58.42C145.2 58.77 145.32 59.23 145.32 59.79C145.32 60.44 145.12 61 144.73 61.49C144.33 61.97 143.78 62.35 143.07 62.61C142.36 62.87 141.52 63.01 140.57 63.01C139.62 63.01 138.75 62.86 138 62.57C137.26 62.28 136.67 61.87 136.24 61.35C135.81 60.83 135.58 60.22 135.54 59.53Z" fill="#16153C"/>
<path d="M146.89 59.53H148.69C148.74 59.93 148.91 60.29 149.19 60.59C149.47 60.89 149.85 61.13 150.31 61.3C150.77 61.47 151.32 61.55 151.93 61.55C152.84 61.55 153.55 61.41 154.09 61.13C154.62 60.85 154.88 60.46 154.88 59.98C154.88 59.58 154.73 59.29 154.42 59.09C154.12 58.89 153.56 58.74 152.76 58.65L150.58 58.37C149.36 58.21 148.47 57.91 147.92 57.46C147.37 57.01 147.09 56.38 147.09 55.57C147.09 54.95 147.28 54.41 147.65 53.96C148.02 53.51 148.55 53.16 149.23 52.91C149.91 52.66 150.71 52.54 151.63 52.54C152.55 52.54 153.34 52.67 154.04 52.94C154.74 53.21 155.3 53.58 155.72 54.06C156.14 54.54 156.36 55.1 156.4 55.75H154.6C154.56 55.39 154.41 55.08 154.15 54.82C153.89 54.56 153.55 54.36 153.12 54.21C152.69 54.06 152.18 53.99 151.6 53.99C150.77 53.99 150.11 54.12 149.62 54.39C149.13 54.66 148.88 55.03 148.88 55.49C148.88 55.85 149.03 56.13 149.32 56.32C149.61 56.51 150.12 56.66 150.85 56.76L153.06 57.07C153.97 57.2 154.68 57.36 155.21 57.57C155.74 57.78 156.11 58.06 156.34 58.42C156.56 58.77 156.68 59.23 156.68 59.79C156.68 60.44 156.48 61 156.09 61.49C155.7 61.98 155.14 62.35 154.43 62.61C153.72 62.87 152.88 63.01 151.93 63.01C150.98 63.01 150.11 62.86 149.36 62.57C148.62 62.28 148.03 61.87 147.6 61.35C147.17 60.83 146.94 60.22 146.9 59.53H146.89Z" fill="#16153C"/>
<path d="M158.86 52.71H160.64V62.81H158.86V52.71Z" fill="#16153C"/>
<path d="M168.7 63C167.55 63 166.54 62.78 165.67 62.34C164.8 61.9 164.12 61.29 163.64 60.5C163.16 59.71 162.91 58.8 162.91 57.76C162.91 56.72 163.15 55.81 163.64 55.02C164.12 54.23 164.8 53.62 165.67 53.18C166.54 52.74 167.55 52.52 168.7 52.52C169.85 52.52 170.86 52.74 171.73 53.18C172.6 53.62 173.28 54.23 173.76 55.02C174.24 55.81 174.49 56.72 174.49 57.76C174.49 58.8 174.25 59.71 173.76 60.5C173.28 61.29 172.6 61.9 171.73 62.34C170.86 62.78 169.85 63 168.7 63ZM168.7 61.41C169.52 61.41 170.22 61.26 170.81 60.97C171.4 60.67 171.86 60.25 172.19 59.7C172.52 59.15 172.68 58.51 172.68 57.76C172.68 57.01 172.52 56.37 172.19 55.82C171.86 55.27 171.4 54.85 170.81 54.55C170.22 54.25 169.51 54.11 168.7 54.11C167.89 54.11 167.19 54.26 166.59 54.55C165.99 54.85 165.53 55.27 165.2 55.82C164.87 56.37 164.71 57.01 164.71 57.76C164.71 58.51 164.87 59.15 165.2 59.7C165.53 60.25 165.99 60.67 166.59 60.97C167.19 61.27 167.89 61.41 168.7 61.41Z" fill="#16153C"/>
<path d="M186.11 61.73L185.38 61.81V52.71H187.1V62.81H184.84L177.76 53.71L178.47 53.63V62.81H176.75V52.71H179.07L186.11 61.73Z" fill="#16153C"/>
<path d="M195.94 52.71L200.79 62.81H198.89L194.49 53.38H195.18L190.78 62.81H188.88L193.73 52.71H195.95H195.94ZM191.25 60.5V59.03H198.31V60.5H191.25Z" fill="#16153C"/>
<path d="M204.33 52.71V62.02L203.54 61.25H211.15V62.81H202.56V52.71H204.34H204.33Z" fill="#16153C"/>
</g>
<defs>
<clipPath id="clip0_14_19">
<rect width="251.18" height="72" fill="white"/>
</clipPath>
</defs>
</svg>
