<?xml version="1.0" encoding="UTF-8"?>
<svg id="Camada_2" data-name="Camada 2" xmlns="http://www.w3.org/2000/svg" viewBox="0 0 251.18 72">
  <defs>
    <style>
      .cls-1 {
        fill: #111;
      }

      .cls-2 {
        fill: #b91f1d;
      }
    </style>
  </defs>
  <g id="OBJECTS">
    <g>
      <polygon points="8.76 35.13 8.76 72 0 72 0 43.1 8.76 35.13"/>
      <polygon class="cls-2" points="8.76 35.13 8.76 72 17.52 72 17.52 41.3 8.76 35.13"/>
      <polygon points="26.02 20.08 26.02 72 14.34 72 14.34 31.07 26.02 20.08"/>
      <polygon class="cls-2" points="26.02 20.08 26.02 72 37.7 72 37.7 28.3 26.02 20.08"/>
      <polygon points="47.59 0 47.59 72 31.86 72 31.86 16.44 47.59 0"/>
      <polygon class="cls-2" points="47.59 0 47.59 72 63.32 72 63.32 16.44 47.59 0"/>
    </g>
    <g>
      <g>
        <path class="cls-1" d="M107.99,16.97v5.15h-19.66l3.04-3.07v24.39h-6v-26.47h22.62ZM88.26,28.2h19.13v5.12h-19.13v-5.12Z"/>
        <path class="cls-1" d="M112.72,16.97h6v26.47h-6v-26.47Z"/>
        <path class="cls-1" d="M142.33,16.97l12.39,26.47h-6.39l-10.84-24.04h1.98l-10.84,24.04h-6.39l12.39-26.47h7.69ZM129.17,37.87v-4.87h18.35v4.87h-18.35Z"/>
        <path class="cls-1" d="M170.85,16.97c3.08,0,5.78.55,8.1,1.66,2.32,1.11,4.12,2.65,5.42,4.62,1.3,1.98,1.94,4.29,1.94,6.95s-.65,4.95-1.94,6.94c-1.29,1.99-3.1,3.54-5.42,4.64-2.32,1.11-5.02,1.66-8.1,1.66h-12.57v-26.47h12.57ZM164.25,41.08l-3.03-2.93h10.09c1.79,0,3.36-.33,4.71-.99s2.39-1.59,3.12-2.79,1.09-2.59,1.09-4.17-.36-2.99-1.09-4.18-1.77-2.11-3.12-2.77c-1.35-.66-2.92-.99-4.71-.99h-10.09l3.03-2.93v21.74Z"/>
        <path class="cls-1" d="M205.3,43.97c-3.08,0-5.78-.58-8.1-1.73-2.32-1.15-4.12-2.76-5.42-4.82-1.29-2.06-1.94-4.47-1.94-7.22s.65-5.16,1.94-7.22c1.29-2.06,3.1-3.66,5.42-4.82,2.32-1.15,5.02-1.73,8.1-1.73s5.78.58,8.1,1.73c2.32,1.15,4.12,2.76,5.42,4.82,1.29,2.06,1.94,4.47,1.94,7.22s-.65,5.16-1.94,7.22c-1.29,2.06-3.1,3.66-5.42,4.82-2.32,1.15-5.02,1.73-8.1,1.73ZM205.3,38.64c1.93,0,3.59-.34,4.99-1.02,1.4-.68,2.48-1.66,3.25-2.93s1.15-2.76,1.15-4.48-.38-3.21-1.15-4.48-1.85-2.25-3.25-2.93c-1.4-.68-3.06-1.02-4.99-1.02s-3.56.34-4.98,1.02c-1.41.68-2.5,1.66-3.26,2.93s-1.15,2.77-1.15,4.48.38,3.21,1.15,4.48,1.85,2.25,3.26,2.93c1.41.68,3.07,1.02,4.98,1.02Z"/>
        <path class="cls-1" d="M229.76,28.73h10.2c1.34,0,2.41-.31,3.19-.94.79-.62,1.18-1.49,1.18-2.6s-.39-1.96-1.18-2.58c-.79-.61-1.85-.92-3.19-.92h-11.08l2.72-3.07v24.81h-6v-26.47h15.07c1.93,0,3.62.35,5.08,1.04,1.46.69,2.6,1.65,3.42,2.88.82,1.22,1.24,2.66,1.24,4.31s-.41,3.05-1.24,4.27-1.96,2.18-3.42,2.88c-1.46.69-3.15,1.04-5.08,1.04h-10.91v-4.66ZM234.34,31.05h6.85l9.99,12.39h-7.02l-9.81-12.39Z"/>
      </g>
      <g>
        <path class="cls-1" d="M90.71,52.71c.75,0,1.41.13,1.96.4.55.27.98.64,1.28,1.12.3.48.45,1.03.45,1.66s-.15,1.18-.45,1.66c-.3.48-.73.86-1.28,1.12-.55.27-1.21.4-1.96.4h-4.54v-1.54h4.47c.61,0,1.09-.15,1.43-.44.35-.3.52-.7.52-1.21s-.17-.92-.52-1.21c-.35-.3-.82-.44-1.43-.44h-4.3l.79-.89v9.45h-1.78v-10.1h5.35Z"/>
        <path class="cls-1" d="M97.63,57.26h4.11c.59,0,1.06-.13,1.41-.4.35-.27.52-.64.52-1.1s-.17-.85-.52-1.11c-.35-.26-.81-.4-1.41-.4h-4.36l.79-1v9.56h-1.78v-10.1h5.51c.71,0,1.33.13,1.86.38.53.26.95.61,1.25,1.06.3.45.45.99.45,1.6s-.15,1.12-.45,1.57c-.3.45-.72.81-1.25,1.06-.53.26-1.16.38-1.86.38h-4.27v-1.51ZM99.63,58.08h2.09l4.01,4.73h-2.13l-3.97-4.73Z"/>
        <path class="cls-1" d="M113.03,63c-1.15,0-2.16-.22-3.03-.66s-1.55-1.05-2.03-1.84c-.48-.79-.73-1.7-.73-2.74s.24-1.95.73-2.74c.48-.79,1.16-1.4,2.03-1.84.87-.44,1.88-.66,3.03-.66s2.16.22,3.03.66c.87.44,1.55,1.05,2.03,1.84.48.79.73,1.7.73,2.74s-.24,1.95-.73,2.74c-.48.79-1.16,1.4-2.03,1.84-.87.44-1.88.66-3.03.66ZM113.03,61.41c.82,0,1.52-.15,2.11-.44.59-.3,1.05-.72,1.38-1.27.33-.55.49-1.19.49-1.94s-.16-1.39-.49-1.94c-.33-.55-.79-.97-1.38-1.27-.59-.3-1.3-.44-2.11-.44s-1.51.15-2.11.44c-.6.3-1.06.72-1.39,1.27-.33.55-.49,1.19-.49,1.94s.16,1.39.49,1.94c.33.55.79.97,1.39,1.27.6.3,1.3.44,2.11.44Z"/>
        <path class="cls-1" d="M129.41,52.71v1.56h-7.53l.97-1.01v9.55h-1.78v-10.1h8.34ZM121.94,57.13h7.26v1.56h-7.26v-1.56Z"/>
        <path class="cls-1" d="M131.58,52.71h1.78v10.1h-1.78v-10.1Z"/>
        <path class="cls-1" d="M135.54,59.53h1.8c.05.4.22.76.51,1.06.28.3.66.54,1.12.71s1.01.25,1.62.25c.91,0,1.63-.14,2.15-.42.53-.28.79-.67.79-1.15,0-.4-.15-.69-.46-.89-.31-.2-.86-.35-1.66-.44l-2.18-.28c-1.22-.16-2.11-.46-2.66-.91-.55-.44-.83-1.08-.83-1.89,0-.62.19-1.16.56-1.61.37-.45.9-.8,1.58-1.05.68-.25,1.48-.37,2.4-.37s1.71.13,2.41.4,1.26.64,1.68,1.12c.42.48.64,1.04.68,1.69h-1.8c-.05-.36-.2-.67-.45-.93s-.6-.46-1.03-.61c-.43-.15-.94-.22-1.52-.22-.83,0-1.49.13-1.98.4-.49.27-.74.64-.74,1.1,0,.36.15.64.44.83.29.19.8.34,1.53.44l2.21.31c.91.13,1.62.29,2.15.5.53.21.9.49,1.12.85.22.35.34.81.34,1.37,0,.65-.2,1.21-.59,1.7-.4.48-.95.86-1.66,1.12-.71.26-1.55.4-2.5.4s-1.82-.15-2.57-.44c-.74-.29-1.33-.7-1.76-1.22-.43-.52-.66-1.13-.7-1.82Z"/>
        <path class="cls-1" d="M146.89,59.53h1.8c.05.4.22.76.5,1.06.28.3.66.54,1.12.71s1.01.25,1.62.25c.91,0,1.62-.14,2.16-.42.53-.28.79-.67.79-1.15,0-.4-.15-.69-.46-.89-.3-.2-.86-.35-1.66-.44l-2.18-.28c-1.22-.16-2.11-.46-2.66-.91s-.83-1.08-.83-1.89c0-.62.19-1.16.56-1.61.37-.45.9-.8,1.58-1.05.68-.25,1.48-.37,2.4-.37s1.71.13,2.41.4,1.26.64,1.68,1.12c.42.48.64,1.04.68,1.69h-1.8c-.04-.36-.19-.67-.45-.93-.26-.26-.6-.46-1.03-.61-.43-.15-.94-.22-1.52-.22-.83,0-1.49.13-1.98.4-.49.27-.74.64-.74,1.1,0,.36.15.64.44.83.29.19.8.34,1.53.44l2.21.31c.91.13,1.62.29,2.15.5.53.21.9.49,1.13.85.22.35.34.81.34,1.37,0,.65-.2,1.21-.59,1.7s-.95.86-1.66,1.12c-.71.26-1.55.4-2.5.4s-1.82-.15-2.57-.44c-.74-.29-1.33-.7-1.76-1.22-.43-.52-.66-1.13-.7-1.82Z"/>
        <path class="cls-1" d="M158.86,52.71h1.78v10.1h-1.78v-10.1Z"/>
        <path class="cls-1" d="M168.7,63c-1.15,0-2.16-.22-3.03-.66-.87-.44-1.55-1.05-2.03-1.84-.48-.79-.73-1.7-.73-2.74s.24-1.95.73-2.74c.48-.79,1.16-1.4,2.03-1.84.87-.44,1.88-.66,3.03-.66s2.16.22,3.03.66c.87.44,1.55,1.05,2.03,1.84.48.79.73,1.7.73,2.74s-.24,1.95-.73,2.74c-.48.79-1.16,1.4-2.03,1.84-.87.44-1.88.66-3.03.66ZM168.7,61.41c.82,0,1.52-.15,2.11-.44.59-.3,1.05-.72,1.38-1.27.33-.55.49-1.19.49-1.94s-.16-1.39-.49-1.94c-.33-.55-.79-.97-1.38-1.27-.59-.3-1.3-.44-2.11-.44s-1.51.15-2.11.44c-.6.3-1.06.72-1.39,1.27-.33.55-.49,1.19-.49,1.94s.16,1.39.49,1.94c.33.55.79.97,1.39,1.27.6.3,1.3.44,2.11.44Z"/>
        <path class="cls-1" d="M186.11,61.73l-.73.08v-9.1h1.72v10.1h-2.26l-7.08-9.1.71-.08v9.18h-1.72v-10.1h2.32l7.04,9.02Z"/>
        <path class="cls-1" d="M195.94,52.71l4.85,10.1h-1.9l-4.4-9.43h.69l-4.4,9.43h-1.9l4.85-10.1h2.22ZM191.25,60.5v-1.47h7.06v1.47h-7.06Z"/>
        <path class="cls-1" d="M204.33,52.71v9.31l-.79-.77h7.61v1.56h-8.59v-10.1h1.78Z"/>
      </g>
    </g>
  </g>
</svg>